<svg xmlns="http://www.w3.org/2000/svg" width="32" height="32" viewBox="0 0 32 32" fill="none">
<path opacity="0.4" d="M26 13.293V25.333C26 27.9996 25.3333 29.333 22 29.333H10C6.66667 29.333 6 27.9996 6 25.333V13.293C6.21333 13.3196 6.44 13.333 6.66667 13.333H25.3333C25.56 13.333 25.7867 13.3196 26 13.293Z" fill="#6A6B70"/>
<path d="M29.3337 6.66602V9.33268C29.3337 11.7727 28.227 13.0927 26.0003 13.2927C25.787 13.3193 25.5603 13.3327 25.3337 13.3327H6.66699C6.44033 13.3327 6.21366 13.3193 6.00033 13.2927C3.77366 13.0927 2.66699 11.7727 2.66699 9.33268V6.66602C2.66699 3.99935 4.00033 2.66602 6.66699 2.66602H25.3337C28.0003 2.66602 29.3337 3.99935 29.3337 6.66602Z" fill="#6A6B70"/>
<path d="M18.4266 19.666H13.5732C13.0266 19.666 12.5732 19.2127 12.5732 18.666C12.5732 18.1193 13.0266 17.666 13.5732 17.666H18.4266C18.9732 17.666 19.4266 18.1193 19.4266 18.666C19.4266 19.2127 18.9732 19.666 18.4266 19.666Z" fill="#292D32"/>
</svg>