    <svg
                  xmlns="http://www.w3.org/2000/svg"
                  width="20"
                  height="20"
                  viewBox="0 0 22 22"
                  fill="none"
                >
                  <path
                    d="M18.7914 5.5H3.20801"
                    stroke="#6A6B70"
                    stroke-width="1.5"
                    stroke-linecap="round"
                  />
                  <path
                    d="M17.2641 7.79102L16.8425 14.1152C16.6802 16.5489 16.5991 17.7657 15.8062 18.5075C15.0133 19.2493 13.7937 19.2493 11.3547 19.2493H10.6458C8.20669 19.2493 6.98716 19.2493 6.19423 18.5075C5.40131 17.7657 5.32018 16.5489 5.15794 14.1152L4.73633 7.79102"
                    stroke="#6A6B70"
                    stroke-width="1.5"
                    stroke-linecap="round"
                  />
                  <path
                    d="M8.70801 10.084L9.16634 14.6673"
                    stroke="#6A6B70"
                    stroke-width="1.5"
                    stroke-linecap="round"
                  />
                  <path
                    d="M13.2913 10.084L12.833 14.6673"
                    stroke="#6A6B70"
                    stroke-width="1.5"
                    stroke-linecap="round"
                  />
                  <path
                    d="M5.95801 5.5C6.00923 5.5 6.03484 5.5 6.05806 5.49941C6.81288 5.48028 7.47878 5.00033 7.73562 4.29029C7.74352 4.26845 7.75162 4.24415 7.76782 4.19556L7.85682 3.92857C7.93279 3.70066 7.97078 3.58669 8.02116 3.48993C8.22218 3.1039 8.59411 2.83583 9.0239 2.7672C9.13163 2.75 9.25175 2.75 9.492 2.75H12.5074C12.7476 2.75 12.8677 2.75 12.9754 2.7672C13.4052 2.83583 13.7772 3.1039 13.9782 3.48993C14.0286 3.58669 14.0666 3.70065 14.1425 3.92857L14.2315 4.19556C14.2477 4.24409 14.2558 4.26847 14.2637 4.29029C14.5206 5.00033 15.1865 5.48028 15.9413 5.49941C15.9645 5.5 15.9901 5.5 16.0413 5.5"
                    stroke="#6A6B70"
                    stroke-width="1.5"
                  />
                </svg>