<svg xmlns="http://www.w3.org/2000/svg" width="20" height="20" viewBox="0 0 22 22" fill="none">
<path d="M10.083 1.83398H8.24967C3.66634 1.83398 1.83301 3.66732 1.83301 8.25065V13.7507C1.83301 18.334 3.66634 20.1673 8.24967 20.1673H13.7497C18.333 20.1673 20.1663 18.334 20.1663 13.7507V11.9173" stroke="#6A6B70" stroke-width="1.5" stroke-linecap="round" stroke-linejoin="round"/>
<path d="M14.7037 2.76881L7.48038 9.99214C7.20538 10.2671 6.93038 10.808 6.87538 11.2021L6.48121 13.9613C6.33454 14.9605 7.04038 15.6571 8.03954 15.5196L10.7987 15.1255C11.1837 15.0705 11.7245 14.7955 12.0087 14.5205L19.232 7.29714C20.4787 6.05048 21.0654 4.60214 19.232 2.76881C17.3987 0.935476 15.9504 1.52214 14.7037 2.76881Z" stroke="#6A6B70" stroke-width="1.5" stroke-miterlimit="10" stroke-linecap="round" stroke-linejoin="round"/>
<path d="M13.668 3.80469C14.2821 5.99552 15.9963 7.70969 18.1963 8.33302" stroke="#6A6B70" stroke-width="1.5" stroke-miterlimit="10" stroke-linecap="round" stroke-linejoin="round"/>
</svg>