<svg width="30" height="32" viewBox="0 0 30 32" fill="none" xmlns="http://www.w3.org/2000/svg">
<path d="M24.5 0.166016H5.5C2.87167 0.166016 0.75 2.27185 0.75 4.86852V22.1427C0.75 24.7393 2.87167 26.8452 5.5 26.8452H6.70333C7.97 26.8452 9.17333 27.336 10.06 28.2227L12.7675 30.8985C14.0025 32.1177 16.0133 32.1177 17.2483 30.8985L19.9558 28.2227C20.8425 27.336 22.0617 26.8452 23.3125 26.8452H24.5C27.1283 26.8452 29.25 24.7393 29.25 22.1427V4.86852C29.25 2.27185 27.1283 0.166016 24.5 0.166016ZM15 6.10352C17.0425 6.10352 18.6892 7.75018 18.6892 9.79268C18.6892 11.8352 17.0425 13.4818 15 13.4818C12.9575 13.4818 11.3108 11.8193 11.3108 9.79268C11.3108 7.75018 12.9575 6.10352 15 6.10352ZM19.2433 20.8444H10.7567C9.47417 20.8444 8.73 19.4193 9.4425 18.3585C10.5192 16.7593 12.6092 15.6827 15 15.6827C17.3908 15.6827 19.4808 16.7593 20.5575 18.3585C21.27 19.4193 20.51 20.8444 19.2433 20.8444Z" fill="#AA77FF"/>
</svg>
