<svg width="189" height="44" viewBox="0 0 189 44" fill="none" xmlns="http://www.w3.org/2000/svg">
<g clip-path="url(#clip0_6347_27414)">
<path d="M33.1095 0H11.0365C4.94121 0 0 4.92487 0 11V33C0 39.0751 4.94121 44 11.0365 44H33.1095C39.2048 44 44.146 39.0751 44.146 33V11C44.146 4.92487 39.2048 0 33.1095 0Z" fill="white"/>
<path d="M34.4489 35.75H28.2721C28.2721 34.9786 28.2721 34.2625 28.2721 33.5501C28.2721 32.8299 28.2801 32.1058 28.2721 31.3857C28.2562 30.2012 27.7593 29.6974 26.5431 29.6857C25.3903 29.6739 24.2337 29.7014 23.0809 29.7054C22.7828 29.7054 22.4887 29.6777 22.0872 29.6541V23.5938C21.63 23.5938 21.2723 23.5938 20.9186 23.5938C19.9169 23.5938 18.9153 23.5938 17.9096 23.5938C16.4151 23.5976 15.9818 24.0345 15.978 25.5457C15.978 27.2576 15.978 28.9733 15.978 30.6852C15.978 31.3384 15.978 31.9957 15.978 32.7316H9.72549C9.70163 32.3696 9.66189 32.0194 9.66189 31.673C9.65791 28.9695 9.66189 26.262 9.66189 23.5583C9.66189 20.8548 10.8583 18.9067 13.3625 17.7772C13.4181 17.7536 13.4777 17.7379 13.5294 17.7103C13.5532 17.6986 13.5691 17.667 13.6526 17.5726C12.3966 17.2774 11.3273 16.7186 10.588 15.6837C9.84076 14.6289 9.49097 13.468 9.73343 12.1851C10.1587 9.93802 11.9077 8.3442 14.1972 8.25369C16.4986 8.1671 18.3271 9.61532 18.9232 11.6263C19.583 13.8458 18.6212 15.8923 16.0892 17.3482H22.0992C22.1747 18.4187 22.1309 19.3986 22.139 20.3746C22.1468 21.3663 22.139 22.3541 22.139 23.456C24.1739 23.578 26.1575 23.4717 28.1806 23.4835C26.6901 22.6886 25.5532 21.63 25.2312 19.9378C25.0366 18.9067 25.1638 17.907 25.6526 16.9587C26.6661 14.9989 28.8763 14.0229 31.0385 14.5936C33.1174 15.1445 34.5603 17.0963 34.4728 19.249C34.3973 21.075 33.1134 23.2119 30.2316 23.6449C30.5219 23.7826 30.7127 23.877 30.9034 23.9676C33.2088 25.0498 34.4331 26.8404 34.4728 29.3708C34.5047 31.2047 34.4808 33.0386 34.4808 34.8725C34.4808 35.14 34.4569 35.4038 34.4411 35.746L34.4489 35.75Z" fill="#070811"/>
<path d="M63.085 17.8207V20.9447H68.1397V23.8487H63.085V27.2367H68.8019V30.2507H59.3105V14.8067H68.8019V17.8207H63.085ZM70.502 24.0907C70.502 22.8294 70.7373 21.722 71.2083 20.7687C71.6939 19.8154 72.3486 19.082 73.1728 18.5687C73.9968 18.0554 74.9166 17.7987 75.9319 17.7987C76.7412 17.7987 77.477 17.9674 78.1392 18.3047C78.816 18.642 79.3458 19.0967 79.7285 19.6687V13.9707H83.503V30.2507H79.7285V28.4907C79.3753 29.0774 78.8676 29.5467 78.2054 29.8987C77.5579 30.2507 76.8001 30.4267 75.9319 30.4267C74.9166 30.4267 73.9968 30.17 73.1728 29.6567C72.3486 29.1287 71.6939 28.388 71.2083 27.4347C70.7373 26.4667 70.502 25.352 70.502 24.0907ZM79.7285 24.1127C79.7285 23.174 79.4636 22.4334 78.9339 21.8907C78.4187 21.348 77.7861 21.0767 77.0356 21.0767C76.2851 21.0767 75.645 21.348 75.1152 21.8907C74.6001 22.4187 74.3427 23.152 74.3427 24.0907C74.3427 25.0294 74.6001 25.7774 75.1152 26.3347C75.645 26.8774 76.2851 27.1487 77.0356 27.1487C77.7861 27.1487 78.4187 26.8774 78.9339 26.3347C79.4636 25.792 79.7285 25.0514 79.7285 24.1127ZM98.3957 17.9747V30.2507H94.6213V28.5787C94.2387 29.1214 93.7163 29.5614 93.0541 29.8987C92.4067 30.2214 91.6856 30.3827 90.8909 30.3827C89.9492 30.3827 89.1178 30.1774 88.3967 29.7667C87.6757 29.3414 87.1164 28.7327 86.7191 27.9407C86.3218 27.1487 86.1232 26.2174 86.1232 25.1467V17.9747H89.8756V24.6407C89.8756 25.462 90.089 26.1 90.5157 26.5547C90.9425 27.0094 91.5164 27.2367 92.2374 27.2367C92.9732 27.2367 93.5544 27.0094 93.9811 26.5547C94.408 26.1 94.6213 25.462 94.6213 24.6407V17.9747H98.3957ZM112.916 19.7787C112.916 20.6734 112.71 21.4947 112.298 22.2427C111.886 22.976 111.253 23.57 110.4 24.0247C109.546 24.4794 108.487 24.7067 107.221 24.7067H104.881V30.2507H101.107V14.8067H107.221C108.457 14.8067 109.502 15.0194 110.356 15.4447C111.209 15.87 111.849 16.4567 112.276 17.2047C112.703 17.9527 112.916 18.8107 112.916 19.7787ZM106.934 21.7147C107.655 21.7147 108.192 21.546 108.546 21.2087C108.899 20.8714 109.075 20.3947 109.075 19.7787C109.075 19.1627 108.899 18.686 108.546 18.3487C108.192 18.0114 107.655 17.8427 106.934 17.8427H104.881V21.7147H106.934ZM118.656 13.9707V30.2507H114.881V13.9707H118.656ZM133.553 17.9747V30.2507H129.779V28.5787C129.396 29.1214 128.874 29.5614 128.211 29.8987C127.564 30.2214 126.843 30.3827 126.048 30.3827C125.106 30.3827 124.275 30.1774 123.554 29.7667C122.833 29.3414 122.274 28.7327 121.876 27.9407C121.479 27.1487 121.28 26.2174 121.28 25.1467V17.9747H125.033V24.6407C125.033 25.462 125.246 26.1 125.673 26.5547C126.1 27.0094 126.674 27.2367 127.395 27.2367C128.13 27.2367 128.712 27.0094 129.138 26.5547C129.565 26.1 129.779 25.462 129.779 24.6407V17.9747H133.553ZM141.274 30.4267C140.201 30.4267 139.244 30.2434 138.405 29.8767C137.567 29.51 136.904 29.0114 136.419 28.3807C135.933 27.7354 135.661 27.0167 135.602 26.2247H139.332C139.376 26.65 139.575 26.9947 139.928 27.2587C140.281 27.5227 140.716 27.6547 141.23 27.6547C141.702 27.6547 142.062 27.5667 142.312 27.3907C142.577 27.2 142.709 26.958 142.709 26.6647C142.709 26.3127 142.526 26.056 142.157 25.8947C141.79 25.7187 141.194 25.528 140.369 25.3227C139.487 25.1174 138.751 24.9047 138.162 24.6847C137.574 24.45 137.066 24.0907 136.64 23.6067C136.213 23.108 135.999 22.4407 135.999 21.6047C135.999 20.9007 136.191 20.2627 136.573 19.6907C136.971 19.104 137.545 18.642 138.295 18.3047C139.06 17.9674 139.965 17.7987 141.01 17.7987C142.555 17.7987 143.769 18.18 144.652 18.9427C145.55 19.7054 146.064 20.7174 146.197 21.9787H142.709C142.651 21.5534 142.46 21.216 142.135 20.9667C141.826 20.7174 141.415 20.5927 140.899 20.5927C140.458 20.5927 140.12 20.6807 139.884 20.8567C139.649 21.018 139.531 21.2454 139.531 21.5387C139.531 21.8907 139.716 22.1547 140.083 22.3307C140.466 22.5067 141.054 22.6827 141.848 22.8587C142.762 23.0934 143.504 23.328 144.078 23.5627C144.652 23.7827 145.152 24.1494 145.579 24.6627C146.02 25.1614 146.249 25.836 146.263 26.6867C146.263 27.4054 146.057 28.0507 145.645 28.6227C145.248 29.18 144.667 29.62 143.901 29.9427C143.151 30.2654 142.276 30.4267 141.274 30.4267ZM170.798 14.8067V30.2507H167.024V20.9887L163.559 30.2507H160.512L157.025 20.9667V30.2507H153.25V14.8067H157.709L162.058 25.4987L166.362 14.8067H170.798ZM183.158 27.5227H177.375L176.448 30.2507H172.497L178.103 14.8067H182.474L188.08 30.2507H184.085L183.158 27.5227ZM182.187 24.6187L180.266 18.9647L178.368 24.6187H182.187Z" fill="white"/>
</g>
<defs>
<clipPath id="clip0_6347_27414">
<rect width="189" height="44" fill="white"/>
</clipPath>
</defs>
</svg>
