<svg xmlns="http://www.w3.org/2000/svg" width="32" height="32" viewBox="0 0 32 32" fill="none">
<rect width="32" height="32" rx="8" fill="#070811"/>
<path d="M24.9707 26H20.4933C20.4933 25.439 20.4933 24.9182 20.4933 24.4001C20.4933 23.8763 20.4991 23.3497 20.4933 22.826C20.4818 21.9645 20.1216 21.5981 19.24 21.5896C18.4044 21.581 17.566 21.601 16.7304 21.6039C16.5143 21.6039 16.3011 21.5838 16.0101 21.5666V17.1591C15.6787 17.1591 15.4194 17.1591 15.163 17.1591C14.4369 17.1591 13.7109 17.1591 12.9819 17.1591C11.8986 17.1619 11.5845 17.4796 11.5817 18.5787C11.5817 19.8237 11.5817 21.0715 11.5817 22.3165C11.5817 22.7916 11.5817 23.2696 11.5817 23.8048H7.04948C7.03219 23.5415 7.00338 23.2868 7.00338 23.0349C7.0005 21.0687 7.00338 19.0996 7.00338 17.1333C7.00338 15.1671 7.87063 13.7503 9.68582 12.9289C9.72615 12.9117 9.76933 12.9003 9.80681 12.8802C9.82409 12.8717 9.83561 12.8487 9.89613 12.7801C8.98566 12.5654 8.21061 12.159 7.6747 11.4063C7.13304 10.6392 6.87949 9.79494 7.05524 8.86188C7.36353 7.22765 8.63127 6.06851 10.2909 6.00268C11.9591 5.93971 13.2845 6.99296 13.7166 8.45548C14.1949 10.0697 13.4977 11.558 11.6623 12.6169H16.0188C16.0735 13.3954 16.0418 14.1081 16.0476 14.8179C16.0533 15.5391 16.0476 16.2575 16.0476 17.0589C17.5227 17.1476 18.9605 17.0703 20.427 17.0789C19.3466 16.5008 18.5225 15.7309 18.2891 14.5002C18.148 13.7503 18.2402 13.0233 18.5945 12.3336C19.3292 10.9083 20.9313 10.1985 22.4986 10.6135C24.0055 11.0142 25.0514 12.4337 24.988 13.9993C24.9333 15.3273 24.0026 16.8814 21.9137 17.1963C22.1241 17.2964 22.2624 17.3651 22.4007 17.431C24.0718 18.218 24.9592 19.5203 24.988 21.3606C25.0111 22.6943 24.9938 24.0281 24.9938 25.3618C24.9938 25.5564 24.9765 25.7482 24.965 25.9971L24.9707 26Z" fill="white"/>
</svg>