<svg xmlns="http://www.w3.org/2000/svg" width="81" height="80" viewBox="0 0 81 80" fill="none">
          <rect x="0.5" width="80" height="80" rx="16" fill="#F2F1F6" />
          <rect width="32" height="32" transform="translate(24 24)" fill="#F2F1F6" />
          <path opacity="0.4"
            d="M50 37.293V49.333C50 51.9996 49.3333 53.333 46 53.333H34C30.6667 53.333 30 51.9996 30 49.333V37.293C30.2133 37.3196 30.44 37.333 30.6667 37.333H49.3333C49.56 37.333 49.7867 37.3196 50 37.293Z"
            fill="#6A6B70" />
          <path
            d="M53.3337 30.666V33.3327C53.3337 35.7727 52.227 37.0927 50.0003 37.2927C49.787 37.3193 49.5603 37.3327 49.3337 37.3327H30.667C30.4403 37.3327 30.2137 37.3193 30.0003 37.2927C27.7737 37.0927 26.667 35.7727 26.667 33.3327V30.666C26.667 27.9993 28.0003 26.666 30.667 26.666H49.3337C52.0003 26.666 53.3337 27.9993 53.3337 30.666Z"
            fill="#6A6B70" />
          <path
            d="M42.4266 43.666H37.5732C37.0266 43.666 36.5732 43.2127 36.5732 42.666C36.5732 42.1193 37.0266 41.666 37.5732 41.666H42.4266C42.9732 41.666 43.4266 42.1193 43.4266 42.666C43.4266 43.2127 42.9732 43.666 42.4266 43.666Z"
            fill="#292D32" />
        </svg>